<?xml version="1.0" standalone="no"?>
<!DOCTYPE svg PUBLIC "-//W3C//DTD SVG 20010904//EN"
 "http://www.w3.org/TR/2001/REC-SVG-20010904/DTD/svg10.dtd">
<svg version="1.0" xmlns="http://www.w3.org/2000/svg"
 width="128.000000pt" height="128.000000pt" viewBox="0 0 128.000000 128.000000"
 preserveAspectRatio="xMidYMid meet">

<g transform="translate(0.000000,128.000000) scale(0.100000,-0.100000)"
fill="#000000" stroke="none">
<path d="M420 1104 c-115 -31 -214 -115 -270 -228 -29 -58 -35 -82 -38 -156
-13 -259 149 -436 553 -606 44 -19 81 -34 82 -34 2 0 3 42 3 94 l0 93 57 6
c131 14 264 113 326 245 30 63 32 74 32 177 0 105 -2 114 -34 180 -58 116
-156 198 -276 229 -79 21 -357 21 -435 0z m440 -113 c77 -29 134 -82 169 -154
40 -82 47 -139 27 -216 -41 -162 -167 -251 -353 -251 l-63 0 0 -65 0 -65 -72
36 c-246 123 -351 247 -352 414 -1 66 3 84 32 143 37 75 94 128 169 157 72 28
370 29 443 1z"/>
</g>
</svg>
