<?xml version="1.0" standalone="no"?>
<!DOCTYPE svg PUBLIC "-//W3C//DTD SVG 20010904//EN"
 "http://www.w3.org/TR/2001/REC-SVG-20010904/DTD/svg10.dtd">
<svg version="1.0" xmlns="http://www.w3.org/2000/svg"
 width="128.000000pt" height="128.000000pt" viewBox="0 0 128.000000 128.000000"
 preserveAspectRatio="xMidYMid meet">

<g transform="translate(0.000000,128.000000) scale(0.100000,-0.100000)"
fill="#000000" stroke="none">
<path d="M128 953 c-65 -65 -121 -127 -124 -139 -9 -34 12 -64 44 -64 21 0 44
16 92 65 l65 66 5 -233 c6 -265 13 -292 92 -363 61 -55 99 -68 225 -73 93 -4
117 -2 138 12 27 18 35 68 13 83 -7 4 -68 10 -135 13 -131 5 -152 13 -197 74
-20 26 -21 43 -24 259 l-3 232 68 -67 c69 -69 104 -83 131 -56 32 32 14 62
-111 186 -68 67 -132 122 -142 122 -10 0 -72 -53 -137 -117z"/>
<path d="M613 1055 c-24 -17 -29 -49 -13 -75 7 -12 38 -16 134 -20 135 -5 155
-13 200 -74 20 -26 21 -43 24 -259 l3 -232 -68 68 c-69 68 -104 82 -131 55
-32 -32 -14 -62 111 -186 68 -67 132 -122 142 -122 23 0 254 227 261 256 9 34
-12 64 -44 64 -21 0 -44 -16 -92 -65 l-65 -66 -5 233 c-6 258 -10 274 -75 346
-60 67 -111 85 -245 90 -95 3 -119 1 -137 -13z"/>
</g>
</svg>
